<?xml version="1.0" encoding="UTF-8" standalone="no"?>
<!-- Created with Inkscape (http://www.inkscape.org/) -->

<svg
   xmlns:dc="http://purl.org/dc/elements/1.1/"
   xmlns:cc="http://creativecommons.org/ns#"
   xmlns:rdf="http://www.w3.org/1999/02/22-rdf-syntax-ns#"
   xmlns:svg="http://www.w3.org/2000/svg"
   xmlns="http://www.w3.org/2000/svg"
   xmlns:sodipodi="http://sodipodi.sourceforge.net/DTD/sodipodi-0.dtd"
   xmlns:inkscape="http://www.inkscape.org/namespaces/inkscape"
   width="44.124443mm"
   height="62.468887mm"
   viewBox="0 0 156.34646 221.34645"
   id="svg2"
   version="1.1"
   inkscape:version="0.91 r13725"
   sodipodi:docname="bookcover-placeholder.svg">
  <defs
     id="defs4" />
  <sodipodi:namedview
     id="base"
     pagecolor="#ffffff"
     bordercolor="#666666"
     borderopacity="1.0"
     inkscape:pageopacity="0.0"
     inkscape:pageshadow="2"
     inkscape:zoom="1.9637784"
     inkscape:cx="111.02965"
     inkscape:cy="117.48058"
     inkscape:document-units="px"
     inkscape:current-layer="layer1"
     showgrid="false"
     showborder="true"
     inkscape:window-width="1366"
     inkscape:window-height="705"
     inkscape:window-x="-8"
     inkscape:window-y="-8"
     inkscape:window-maximized="1"
     fit-margin-top="4"
     fit-margin-left="4"
     fit-margin-right="4"
     fit-margin-bottom="4" />
  <metadata
     id="metadata7">
    <rdf:RDF>
      <cc:Work
         rdf:about="">
        <dc:format>image/svg+xml</dc:format>
        <dc:type
           rdf:resource="http://purl.org/dc/dcmitype/StillImage" />
        <dc:title></dc:title>
      </cc:Work>
    </rdf:RDF>
  </metadata>
  <g
     inkscape:label="Layer 1"
     inkscape:groupmode="layer"
     id="layer1"
     transform="translate(1128.0989,-353.76043)">
    <path
       style="opacity:1;fill:#cccccc;fill-opacity:1;fill-rule:nonzero;stroke:none;stroke-width:5;stroke-miterlimit:4;stroke-dasharray:none;stroke-dashoffset:0;stroke-opacity:1"
       d="M 14.173828 14.173828 L 14.173828 207.17383 L 142.17383 207.17383 L 142.17383 14.173828 L 14.173828 14.173828 z M 66.357422 60.914062 L 68.533203 60.914062 L 68.533203 70.511719 L 71.568359 65.888672 L 74.150391 65.888672 L 70.912109 70.886719 L 74.509766 78.066406 L 71.865234 78.066406 L 69.095703 72.130859 L 68.533203 72.763672 L 68.533203 78.066406 L 66.357422 78.066406 L 66.357422 60.914062 z M 83.503906 61.125 C 84.614806 61.125 85.867716 61.430041 86.853516 62.744141 L 86.257812 65.160156 C 85.616314 64.362316 84.943306 63.824219 83.628906 63.824219 C 81.688806 63.824219 80.3125 66.075683 80.3125 69.689453 C 80.3125 73.631733 81.688781 75.650391 83.613281 75.650391 C 84.583381 75.650391 85.537888 75.27449 86.304688 74.40625 L 86.869141 76.847656 C 85.711241 78.091356 84.583481 78.302734 83.488281 78.302734 C 80.515383 78.302734 77.996094 75.180524 77.996094 69.666016 C 77.996094 64.409636 80.390208 61.125 83.503906 61.125 z M 38.552734 61.5 L 42.306641 61.5 C 44.841439 61.5 46.798828 62.275132 46.798828 65.701172 C 46.798828 67.367252 46.204225 68.352638 45.390625 69.080078 C 46.564225 69.830998 47.158203 71.214384 47.158203 73.208984 C 47.158203 76.728874 45.327792 78.066406 42.746094 78.066406 L 38.552734 78.066406 L 38.552734 61.5 z M 40.835938 63.847656 L 40.835938 68.09375 L 42.574219 68.09375 C 43.841619 68.09375 44.591797 67.671752 44.591797 66.169922 C 44.591797 64.034522 43.574589 63.847656 41.900391 63.847656 L 40.835938 63.847656 z M 52.113281 65.419922 C 54.757581 65.419922 56.119141 68.118476 56.119141 71.896484 C 56.119141 75.604114 54.757581 78.302734 52.113281 78.302734 C 49.468883 78.302734 48.107422 75.604114 48.107422 71.896484 C 48.107422 68.118476 49.468883 65.419922 52.113281 65.419922 z M 61.097656 65.419922 C 63.742056 65.419922 65.103516 68.118476 65.103516 71.896484 C 65.103516 75.604114 63.742056 78.302734 61.097656 78.302734 C 58.453358 78.302734 57.091797 75.604114 57.091797 71.896484 C 57.091797 68.118476 58.453358 65.419922 61.097656 65.419922 z M 91.6875 65.419922 C 94.3318 65.419922 95.693359 68.118476 95.693359 71.896484 C 95.693359 75.604114 94.3318 78.302734 91.6875 78.302734 C 89.0431 78.302734 87.683594 75.604114 87.683594 71.896484 C 87.683594 68.118476 89.0431 65.419922 91.6875 65.419922 z M 109.07617 65.419922 C 111.54837 65.419922 112.69141 68.351511 112.69141 71.613281 L 112.69141 71.660156 C 112.69141 71.965216 112.67578 72.271122 112.67578 72.576172 L 112.67578 72.623047 L 107.23047 72.623047 C 107.27747 74.852317 108.10734 75.955078 109.51562 75.955078 C 110.51692 75.955078 111.3606 75.41472 111.8457 74.875 L 112.44141 76.871094 C 111.73731 77.692404 110.8144 78.302734 109.4375 78.302734 C 106.6211 78.302734 105.10156 75.791867 105.10156 71.873047 C 105.10156 68.282757 106.55697 65.419922 109.07617 65.419922 z M 96.197266 65.888672 L 98.466797 65.888672 L 100.64258 74.664062 L 102.37891 65.888672 L 104.61523 65.888672 L 101.62695 78.066406 L 99.609375 78.066406 L 96.197266 65.888672 z M 113.86523 65.888672 L 115.86719 65.888672 L 116.02344 67.554688 C 116.53984 66.475258 117.07274 65.888672 118.08984 65.888672 L 118.30859 65.888672 L 118.41797 68.351562 L 117.83984 68.351562 C 116.30654 68.351562 116.02344 69.548589 116.02344 71.355469 L 116.02344 78.066406 L 113.86523 78.066406 L 113.86523 65.888672 z M 52.113281 67.8125 C 50.971081 67.8125 50.1875 69.174436 50.1875 71.896484 C 50.1875 74.548144 50.955381 75.931641 52.113281 75.931641 C 53.271081 75.931641 54.052734 74.548144 54.052734 71.896484 C 54.052734 69.174436 53.255481 67.8125 52.113281 67.8125 z M 61.097656 67.8125 C 59.955456 67.8125 59.173828 69.174436 59.173828 71.896484 C 59.173828 74.548144 59.939856 75.931641 61.097656 75.931641 C 62.255556 75.931641 63.037109 74.548144 63.037109 71.896484 C 63.037109 69.174436 62.239956 67.8125 61.097656 67.8125 z M 91.6875 67.8125 C 90.5452 67.8125 89.763672 69.174436 89.763672 71.896484 C 89.763672 74.548144 90.5296 75.931641 91.6875 75.931641 C 92.8453 75.931641 93.628906 74.548144 93.628906 71.896484 C 93.628906 69.174436 92.8297 67.8125 91.6875 67.8125 z M 109.10742 67.8125 C 108.40332 67.8125 107.35569 68.446259 107.24609 70.886719 L 110.71875 70.886719 L 110.71875 70.769531 C 110.71875 68.798391 110.14012 67.8125 109.10742 67.8125 z M 40.835938 70.371094 L 40.835938 75.744141 L 42.447266 75.744141 C 44.011964 75.744141 44.904297 75.180277 44.904297 73.091797 C 44.904297 71.003327 44.170144 70.371094 42.589844 70.371094 L 40.835938 70.371094 z M 56.675781 102.56641 L 58.960938 102.56641 L 58.960938 119.13281 L 56.675781 119.13281 L 56.675781 102.56641 z M 65.507812 106.48438 L 65.601562 106.48438 C 66.696862 106.48438 67.368766 107.30513 67.697266 108.54883 C 68.417066 107.28166 69.324497 106.48438 70.529297 106.48438 L 70.625 106.48438 C 72.6278 106.48438 73.298828 108.73668 73.298828 111.66992 L 73.298828 119.13281 L 71.140625 119.13281 L 71.140625 112.35156 C 71.140625 109.98149 71.014947 108.87891 70.060547 108.87891 L 70.013672 108.87891 C 68.996572 108.92584 68.480919 109.88754 68.136719 110.82617 L 68.136719 119.13281 L 65.976562 119.13281 L 65.976562 112.14062 C 65.976562 110.28681 65.835459 108.87891 64.755859 108.87891 C 63.817059 108.87891 63.238756 109.95796 62.910156 110.80273 L 62.910156 119.13281 L 60.75 119.13281 L 60.75 106.95312 L 62.582031 106.95312 L 62.753906 108.57227 C 63.332906 107.46938 64.318714 106.53126 65.507812 106.48438 z M 78.111328 106.48438 L 78.298828 106.48438 C 80.176528 106.48437 81.396484 107.79951 81.396484 110.45117 L 81.396484 119.13281 L 79.738281 119.13281 L 79.519531 117.81836 C 78.815331 118.71006 78.126425 119.36719 77.078125 119.36719 C 75.560325 119.36719 74.511719 118.02996 74.511719 115.87109 C 74.511719 112.77358 75.951378 112.28002 78.642578 111.69336 L 79.222656 111.55273 L 79.222656 110.99023 C 79.222656 109.55881 79.144103 108.94931 78.033203 108.87891 L 77.923828 108.87891 C 77.125828 108.87891 75.764097 109.53494 75.404297 109.72266 L 74.980469 107.40039 C 75.731569 106.88413 76.765728 106.53126 78.111328 106.48438 z M 86.333984 106.48438 L 86.347656 106.48438 C 87.599356 106.48438 88.335438 107.21176 88.773438 108.15039 L 88.773438 106.95312 L 90.933594 106.95312 L 90.933594 118.38086 C 90.933594 122.79169 89.806587 124.71612 85.927734 124.7168 L 85.925781 124.7168 L 84.878906 124.7168 L 84.722656 122.20703 L 85.582031 122.20703 C 87.897831 122.20703 88.775391 122.18419 88.775391 118.47656 L 88.775391 117.49023 C 88.368591 118.35847 87.773284 119.13281 86.458984 119.13281 C 84.377986 119.13281 82.671875 116.83296 82.671875 112.84375 C 82.671875 108.61987 84.550286 106.48438 86.333984 106.48438 z M 96.148438 106.48438 C 98.620736 106.48438 99.763672 109.41792 99.763672 112.67969 L 99.763672 112.72656 C 99.763672 113.03162 99.748047 113.33752 99.748047 113.64258 L 99.748047 113.68945 L 94.302734 113.68945 C 94.349734 115.9187 95.177638 117.02148 96.585938 117.02148 C 97.587236 117.02148 98.432769 116.48113 98.917969 115.94141 L 99.513672 117.93555 C 98.809572 118.75685 97.884712 119.36719 96.507812 119.36719 C 93.691314 119.36719 92.173828 116.85632 92.173828 112.9375 C 92.173828 109.34721 93.629338 106.48438 96.148438 106.48438 z M 86.818359 108.87891 C 85.457061 108.87891 84.751953 110.42672 84.751953 112.86719 C 84.751953 115.16685 85.613636 116.76172 86.802734 116.76172 L 86.865234 116.76172 C 88.023134 116.76172 88.867188 115.28418 88.867188 112.86719 C 88.867188 110.37979 88.007434 108.90241 86.865234 108.87891 L 86.818359 108.87891 z M 96.181641 108.87891 C 95.477541 108.87891 94.427959 109.51071 94.318359 111.95117 L 97.792969 111.95117 L 97.792969 111.83398 C 97.792969 109.86284 97.214341 108.87891 96.181641 108.87891 z M 79.222656 113.38281 L 78.642578 113.52344 C 77.437778 113.78157 76.453125 114.06436 76.453125 115.75391 C 76.453125 116.64561 76.780325 117.2793 77.453125 117.2793 C 78.204125 117.2793 78.643656 116.85617 79.222656 116.26953 L 79.222656 113.38281 z M 92.845703 143.04492 L 92.845703 155.43359 C 92.845703 157.2874 92.955381 157.92188 94.113281 157.92188 C 94.504081 157.92188 94.568359 157.875 94.568359 157.875 L 94.662109 160.19727 C 94.662109 160.19727 94.239256 160.33984 93.535156 160.33984 C 91.078558 160.33984 90.6875 158.10925 90.6875 154.98828 L 90.6875 143.25586 L 92.845703 143.04492 z M 103.76367 143.04492 L 105.92383 143.04492 L 105.92383 149.4043 C 106.22113 148.51259 107.01958 147.57428 108.39648 147.55078 L 108.45898 147.55078 C 110.71218 147.55078 111.96289 150.55449 111.96289 153.93359 C 111.96289 157.59428 110.54003 160.43359 108.42773 160.43359 L 108.31836 160.43359 C 107.12916 160.43359 106.31513 159.58727 105.92383 158.48438 L 105.89258 160.19727 L 103.76367 160.19727 L 103.76367 143.04492 z M 115.52148 143.04492 L 115.52148 155.43359 C 115.52148 157.2874 115.63116 157.92188 116.78906 157.92188 C 117.17986 157.92188 117.24414 157.875 117.24414 157.875 L 117.33789 160.19727 C 117.33789 160.19727 116.91504 160.33984 116.21094 160.33984 C 113.75434 160.33984 113.36328 158.10925 113.36328 154.98828 L 113.36328 143.25586 L 115.52148 143.04492 z M 86.714844 143.25586 L 88.890625 143.25586 L 88.890625 145.93164 L 86.714844 145.93164 L 86.714844 143.25586 z M 51.650391 143.58398 L 53.277344 143.58398 L 53.277344 148.01953 L 55.28125 148.01953 L 55.28125 149.9668 L 53.277344 149.9668 L 53.277344 155.15234 C 53.277344 157.21735 53.355822 157.875 54.544922 157.875 C 54.591822 157.875 55.234375 157.80469 55.234375 157.80469 L 55.359375 160.19727 C 55.359375 160.19727 54.561172 160.33984 54.138672 160.33984 C 51.619472 160.33984 51.119141 158.53166 51.119141 154.96484 L 51.119141 149.9668 L 49.710938 149.9668 L 49.835938 148.01953 L 51.119141 148.01953 L 51.650391 143.58398 z M 30.804688 143.63086 L 32.699219 143.63086 L 37.939453 154.80078 L 37.939453 143.63086 L 40.021484 143.63086 L 40.021484 160.19727 L 38.080078 160.19727 L 32.886719 149.0293 L 32.886719 160.19727 L 30.804688 160.19727 L 30.804688 143.63086 z M 63.162109 143.63086 L 65.306641 143.63086 L 68.919922 158.81445 L 69.234375 160.19727 L 67.074219 160.19727 L 65.869141 155.10547 L 62.599609 155.10547 L 61.394531 160.19727 L 59.140625 160.19727 L 59.439453 158.81445 L 63.162109 143.63086 z M 64.242188 147.41016 L 63.083984 153.01758 L 65.337891 153.01758 L 64.242188 147.41016 z M 45.435547 147.55078 C 48.079847 147.55078 49.441406 150.24933 49.441406 154.02734 C 49.441406 157.73498 48.079847 160.43359 45.435547 160.43359 C 42.791247 160.43359 41.429688 157.73498 41.429688 154.02734 C 41.429688 150.24933 42.791247 147.55078 45.435547 147.55078 z M 81.701172 147.55078 L 81.888672 147.55078 C 83.766372 147.55078 84.988281 148.86398 84.988281 151.51562 L 84.988281 160.19727 L 83.328125 160.19727 L 83.109375 158.88477 C 82.405275 159.77647 81.716369 160.43359 80.667969 160.43359 C 79.150169 160.43359 78.103516 159.09441 78.103516 156.93555 C 78.103516 153.83804 79.543075 153.34643 82.234375 152.75977 L 82.8125 152.61914 L 82.8125 152.05469 C 82.8125 150.62327 82.733947 150.01376 81.623047 149.94336 L 81.513672 149.94336 C 80.715572 149.94336 79.353941 150.60132 78.994141 150.78906 L 78.572266 148.46484 C 79.323266 147.94859 80.355572 147.59768 81.701172 147.55078 z M 98.90625 147.55078 L 99.095703 147.55078 C 100.9734 147.55078 102.19336 148.86398 102.19336 151.51562 L 102.19336 160.19727 L 100.53516 160.19727 L 100.31445 158.88477 C 99.610256 159.77647 98.9233 160.43359 97.875 160.43359 C 96.3572 160.43359 95.308594 159.09441 95.308594 156.93555 C 95.308594 153.83804 96.748253 153.34643 99.439453 152.75977 L 100.01758 152.61914 L 100.01758 152.05469 C 100.01758 150.62327 99.939025 150.01376 98.828125 149.94336 L 98.71875 149.94336 C 97.92065 149.94336 96.559019 150.60132 96.199219 150.78906 L 95.777344 148.46484 C 96.528344 147.94859 97.56065 147.59768 98.90625 147.55078 z M 121.92578 147.55078 C 124.39808 147.55078 125.54102 150.48237 125.54102 153.74414 L 125.54102 153.79102 C 125.54102 154.09607 125.52539 154.40198 125.52539 154.70703 L 125.52539 154.75391 L 120.08008 154.75391 C 120.12698 156.98317 120.95713 158.08594 122.36523 158.08594 C 123.36673 158.08594 124.21031 157.54753 124.69531 157.00781 L 125.29102 159.00195 C 124.58682 159.82325 123.66411 160.43359 122.28711 160.43359 C 119.47071 160.43359 117.95117 157.92273 117.95117 154.00391 C 117.95117 150.41362 119.40668 147.55078 121.92578 147.55078 z M 69.167969 148.01953 L 71.435547 148.01953 L 73.611328 156.79492 L 75.347656 148.01953 L 77.585938 148.01953 L 74.597656 160.19727 L 72.578125 160.19727 L 69.167969 148.01953 z M 86.716797 148.01953 L 88.875 148.01953 L 88.875 160.19727 L 86.716797 160.19727 L 86.716797 148.01953 z M 45.435547 149.94336 C 44.293347 149.94336 43.511719 151.30529 43.511719 154.02734 C 43.511719 156.679 44.277647 158.0625 45.435547 158.0625 C 46.593447 158.0625 47.375 156.679 47.375 154.02734 C 47.375 151.30529 46.577847 149.94336 45.435547 149.94336 z M 107.84961 149.94336 C 106.87951 149.94336 105.89258 150.92984 105.89258 154.02734 C 105.89258 157.17179 106.84821 158.03906 107.84961 158.03906 C 108.81971 158.03906 109.88281 157.12485 109.88281 154.02734 C 109.88281 150.76557 108.80411 149.94336 107.84961 149.94336 z M 121.95898 149.94336 C 121.25488 149.94336 120.2052 150.57712 120.0957 153.01758 L 123.57031 153.01758 L 123.57031 152.90039 C 123.57031 150.92925 122.99168 149.94336 121.95898 149.94336 z M 82.8125 154.44922 L 82.234375 154.58984 C 81.029475 154.84796 80.042969 155.12881 80.042969 156.81836 C 80.042969 157.71006 80.372122 158.34375 81.044922 158.34375 C 81.796022 158.34375 82.2336 157.92259 82.8125 157.33594 L 82.8125 154.44922 z M 100.01758 154.44922 L 99.439453 154.58984 C 98.234653 154.84796 97.248047 155.12881 97.248047 156.81836 C 97.248047 157.71006 97.5773 158.34375 98.25 158.34375 C 99.0011 158.34375 99.438576 157.92259 100.01758 157.33594 L 100.01758 154.44922 z "
       transform="translate(-1128.0989,353.76042)"
       id="rect4136" />
  </g>
</svg>
